<svg width="342" height="50" viewBox="0 0 342 50" fill="none" xmlns="http://www.w3.org/2000/svg">
<path d="M10.1773 3.5979V35.7126H25.0413V39.5582H0V3.5979H10.1773Z" fill="#F000BB"/>
<path d="M41.0097 39.5583L39.0936 33.4649H29.2675L27.1525 39.5583H23.9799L32.3933 15.2817C33.2011 12.9837 34.9454 12.1673 37.6342 12.8328C38.7736 13.1307 39.5658 13.947 40.0029 15.2817L48.7207 39.5583H41.0136H41.0097ZM32.444 23.5764L30.0753 30.2693H37.6342L35.6205 23.5261C35.5191 23.1585 35.3513 22.7949 35.1171 22.4273C34.8479 22.0598 34.5123 21.878 34.1103 21.878C33.7084 21.878 33.3728 22.0598 33.1035 22.4273C32.8031 22.7291 32.5806 23.1121 32.4479 23.5764H32.444Z" fill="#F000BB"/>
<path d="M57.6883 29.0196C55.4366 28.5863 53.743 27.9054 52.5996 26.973C51.4562 26.0406 50.6524 24.6749 50.1802 22.876C49.4426 20.2452 49.8953 18.0632 51.5421 16.3339C53.2201 14.5697 55.8074 13.6876 59.3 13.6876H68.7709V16.7826H62.0199C59.5692 16.949 58.1215 17.5138 57.6883 18.481C57.4542 18.9801 57.4034 19.4985 57.5361 20.0285C57.6688 20.5624 57.9732 20.9609 58.4414 21.2279C58.7419 21.429 59.5341 21.6612 60.8102 21.9281L63.5301 22.4775L63.932 22.5781C68.1973 23.3093 70.6324 25.6924 71.2372 29.7198C71.7406 32.6833 70.9602 35.0626 68.8958 36.8616C66.8315 38.6606 63.7135 39.5581 59.5497 39.5581H50.3285V36.4128H56.4239C56.4552 36.4128 56.5761 36.4051 56.7751 36.3896C56.9781 36.3741 57.1107 36.3664 57.1771 36.3664C59.3273 36.2 60.8375 35.8828 61.7116 35.4185C62.617 34.8846 63.0618 34.1109 63.0462 33.0973C63.0306 32.0836 62.5506 31.2093 61.6101 30.4742C60.7711 29.8436 59.46 29.36 57.6805 29.0273L57.6883 29.0196Z" fill="#F000BB"/>
<path d="M95.826 39.5581H81.5161C80.1737 39.5581 79.0303 39.1906 78.0899 38.4594C76.8138 37.4612 76.1738 36.0298 76.1738 34.165V18.6822C76.1738 17.185 76.6616 15.9779 77.6333 15.061C78.6089 14.1441 79.9162 13.6876 81.563 13.6876H95.1665V16.8832H86.7531C85.0048 16.8832 84.1346 17.7344 84.1346 19.4289V24.5241H92.95V27.6694H84.1346V33.3642C84.1346 34.2966 84.4117 35.0394 84.9658 35.5888C85.5199 36.1381 86.2653 36.4128 87.2097 36.4128H95.826V39.5581Z" fill="#F000BB"/>
<path d="M107.412 16.8832V39.562H99.4512V13.6876H112.501C116.664 13.6876 119.486 15.27 120.965 18.4346C121.234 19.0343 121.417 19.6339 121.519 20.2336C121.89 22.2995 121.687 23.9979 120.914 25.3288C120.141 26.6596 118.947 27.4605 117.336 27.7274L124.137 39.5659H115.974L108.871 26.4778C110.249 26.7447 111.49 26.3965 112.598 25.4294C113.706 24.4312 114.245 23.1816 114.21 21.6844C114.175 20.2839 113.64 19.1116 112.598 18.1638C111.556 17.2159 110.245 16.7401 108.669 16.7401C108.298 16.7401 107.88 16.7904 107.408 16.891L107.412 16.8832Z" fill="#F000BB"/>
<path d="M155.828 35.5617C153.545 38.2273 150.135 39.5582 145.6 39.5582H127.411V3.5979H145.6C149.631 3.5979 152.687 4.73145 154.771 6.99468C156.585 9.02579 157.307 11.2736 156.937 13.738C156.601 16.1676 155.391 17.8853 153.307 18.8834C152.702 19.1813 152.047 19.4328 151.341 19.634C150.568 19.8661 149.729 20.0673 148.82 20.2336L151.29 20.8333C152.027 20.9997 152.784 21.2821 153.557 21.6806C155.941 22.7483 157.385 24.7446 157.889 27.6733C158.427 30.571 157.736 33.2018 155.824 35.5656L155.828 35.5617ZM142.627 7.3893H137.589V18.6281H142.627C143.633 18.6281 144.5 18.2722 145.222 17.5526C145.944 16.8368 146.424 15.8774 146.658 14.6819C147.06 12.5851 146.826 10.8519 145.951 9.48618C145.112 8.08568 144.004 7.3893 142.627 7.3893ZM143.481 22.6245H137.585V35.7126H143.481C144.422 35.7126 145.245 35.3141 145.951 34.5133C146.658 33.7124 147.161 32.5634 147.462 31.0662C147.93 28.536 147.715 26.5049 146.806 24.9729C145.901 23.4099 144.792 22.6245 143.481 22.6245Z" fill="#F000BB"/>
<path d="M190.946 30.6679C189.771 34.4322 187.336 37.1945 183.64 38.9586C180.011 40.688 175.863 40.8737 171.196 39.508C169.01 38.8426 167.149 37.7439 165.604 36.2118C164.058 34.6798 162.95 32.8344 162.279 30.6679C161.44 28.0371 161.456 25.3406 162.33 22.5744C163.27 19.5761 165.007 17.2239 167.543 15.5061C170.08 13.7923 173.112 12.9334 176.636 12.9334C179.96 12.8676 182.914 13.6762 185.502 15.3553C188.089 17.0382 189.892 19.2743 190.918 22.0753C191.941 24.8724 191.952 27.7353 190.942 30.6679H190.946ZM170.29 27.0235C170.29 27.7547 170.372 28.6716 170.544 29.7703C170.915 31.9368 171.586 33.6662 172.558 34.9661C173.564 36.4323 174.907 37.1635 176.589 37.1635C178.271 37.1635 179.644 36.4323 180.721 34.9661C182.232 32.9001 182.989 30.1224 182.989 26.625C182.989 23.1276 182.232 20.3305 180.721 18.2336C179.679 16.8022 178.318 16.0865 176.64 16.0865C174.962 16.0865 173.6 16.8022 172.558 18.2336C171.047 20.3305 170.29 23.263 170.29 27.0235Z" fill="#F000BB"/>
<path d="M196.186 30.4666C195.347 27.9674 195.347 25.4062 196.186 22.7755C197.092 19.9435 198.789 17.7229 201.275 16.1057C203.761 14.4924 206.801 13.6839 210.395 13.6839H214.024V0H221.985V39.5582H210.395C206.801 39.5582 203.761 38.7496 201.275 37.1364C198.789 35.5231 197.092 33.2985 196.186 30.4666ZM211.702 36.409H214.02V16.8833H211.702C209.552 16.8833 207.8 17.7577 206.438 19.5064C205.076 21.255 204.397 23.6266 204.397 26.6249C204.397 29.6232 205.076 32.0025 206.438 33.7667C207.8 35.5308 209.552 36.4129 211.702 36.4129V36.409Z" fill="#F000BB"/>
<path d="M251.857 13.6876L233.317 49.9999H230.145L236.997 36.2155L224.806 13.6876H232.767L240.931 28.6211L248.688 13.6876H251.861H251.857Z" fill="#F000BB"/>
<path d="M267.221 17.5835H258.304L269.086 5.04482H256.24V3.5979H275.537L264.754 16.3339H269.945C270.581 16.3339 271.271 16.419 272.009 16.5854C273.823 16.9839 274.947 17.9859 275.384 19.5837C275.888 21.2163 275.517 22.9456 274.276 24.7794L263.697 39.5659H258.308L269.695 23.9322C270.163 23.2668 270.534 22.551 270.803 21.785C271.205 20.5547 271.08 19.545 270.425 18.7635C269.769 17.982 268.704 17.5913 267.225 17.5913L267.221 17.5835Z" fill="black"/>
<path d="M284.251 27.77C284.282 25.9053 284.621 24.0908 285.257 22.3266C285.694 21.2279 286.081 20.3768 286.416 19.781L295.485 3.5979H300.676L291.86 19.8816L292.161 19.6301L292.512 19.3322C294.529 17.8659 297.417 17.6493 301.179 18.6823C303.899 19.4483 306.049 20.8642 307.63 22.9263C309.577 25.3907 310.268 28.1027 309.694 31.0662C309.19 34.0645 307.61 36.378 304.956 38.0107C302.506 39.6085 299.614 40.3745 296.289 40.3087C292.461 40.2429 289.488 39.1094 287.372 36.9119C285.257 34.7145 284.215 31.6659 284.251 27.77ZM290.849 23.526C290.346 24.6905 290.026 25.6422 289.893 26.3734C289.726 27.1394 289.64 28.006 289.64 28.9693C289.706 31.1358 290.143 33.0315 290.951 34.6642C291.993 36.7959 293.655 38.0609 295.938 38.4594C298.256 38.827 300.239 38.1925 301.885 36.5599C303.833 34.7299 304.808 32.2655 304.808 29.1666C304.808 26.0677 303.833 23.5569 301.885 21.7231C300.137 20.0905 298.108 19.4754 295.79 19.8738C293.437 20.2723 291.794 21.491 290.853 23.5182L290.849 23.526Z" fill="black"/>
<path d="M319.719 37.0125C316.328 33.8478 314.529 29.0041 314.33 22.4775C314.294 20.9454 314.431 19.2664 314.732 17.4326C315.438 13.8695 316.831 10.6893 318.915 7.89221C321.065 5.06413 323.867 3.49728 327.328 3.19551C330.755 2.89762 333.642 3.89576 335.995 6.19381C338.313 8.49187 339.925 11.4051 340.83 14.9334C342.879 23.5569 341.872 30.4007 337.806 35.4611C335.691 38.1925 332.725 39.7051 328.913 40.0069C325.1 40.3048 322.037 39.3067 319.719 37.0086V37.0125ZM319.871 22.1293C319.871 23.6265 319.972 25.0928 320.175 26.5242C320.644 29.7198 321.518 32.4202 322.794 34.6177C323.769 36.2813 325.061 37.3645 326.673 37.8636C328.351 38.3317 329.88 38.1151 331.258 37.2136C333.073 36.084 334.516 33.8826 335.59 30.6213C336.027 29.4219 336.296 28.0408 336.397 26.4739C336.866 21.1776 336.514 16.7517 335.34 13.1886C334.232 9.5906 332.788 7.2113 331.008 6.0468C329.666 5.18019 328.218 4.99836 326.677 5.49743C325.131 5.93074 323.886 6.99465 322.95 8.69304C320.936 12.2214 319.91 16.7014 319.875 22.1293H319.871Z" fill="black"/>
</svg>
