<?xml version="1.0" encoding="UTF-8"?><svg id="Layer_1" xmlns="http://www.w3.org/2000/svg" viewBox="0 0 498.39 333.13"><defs><style>.cls-1{fill:#d71920;}</style></defs><path class="cls-1" d="M46.48,333.13c-12.77,0-19.73-9.45-20.86-28.36,.83-12.02,3.14-21.93,6.92-29.72,0-.98-.45-2.84-1.36-5.56,.23-1.44,.75-4.44,1.59-9.02,.83-4.57,1.47-8.51,1.93-11.8,.45-3.29,.68-6.9,.68-10.83-.61,0-1.25,.3-1.93,.91v-.91c-4.91,8.77-15.12,20.23-30.61,34.37H0c0-1.44,.4-3.16,1.19-5.16,.8-2,1.34-3.53,1.64-4.59-1.21-2.42-1.81-7.37-1.81-14.86,0-3.25,1.3-6.8,3.91-10.66,2.61-3.86,6.46-8.56,11.56-14.12,5.1-5.56,8.14-9.05,9.13-10.49,3.48-10.43,9.41-24.71,17.8-42.82,8.39-18.11,14.32-31.25,17.8-39.42,3.48-8.17,6.61-17.92,9.41-29.26,3.93-13.84,10.58-31.95,19.95-54.33,.23-.68,2.08-6.12,5.55-16.33,3.48-10.21,6.4-17.66,8.79-22.34,2.38-4.69,4.89-7.3,7.54-7.83,11.41,0,18.67,9.75,21.77,29.26,0,10.36-3.25,26.01-9.75,46.96-.6,.61-2.3,4.58-5.1,11.91-2.8,7.34-5.44,14.03-7.93,20.08-11.26,27.98-19.61,49.68-25.05,65.11,0,4.54-3.17,18.3-9.52,41.29-6.35,22.99-9.52,36.18-9.52,39.59-2.42,5.97-4.57,14.78-6.46,26.43,0,3.1,.94,5.1,2.83,6.01,2.42-1.21,3.63-1.96,3.63-2.27,9.07-17.92,15.72-30.62,19.95-38.11,.23-.45,.94-4.86,2.15-13.21,1.21-8.35,3.4-15.22,6.57-20.59,3.17-5.37,8.31-8.05,15.42-8.05,1.28,0,3.17-1.21,5.67-3.63,1.66-2.65,5.55-10.21,11.68-22.68,6.12-12.48,10.43-20.72,12.92-24.73,.23-.45,1.51-3.23,3.85-8.34,2.34-5.1,4.55-9.19,6.63-12.25,2.08-3.06,4.29-5.2,6.63-6.41,.3,0,.79-.15,1.47-.45,.68-.3,1.13-.45,1.36-.45,6.5,0,9.75,7.6,9.75,22.8,0,3.78-.87,7.68-2.61,11.68-1.74,4.01-4.18,8.73-7.31,14.18-3.14,5.44-5.27,9.53-6.4,12.25-1.97,3.55-4.8,8.09-8.5,13.61-3.7,5.52-6.54,10.11-8.5,13.78-1.97,3.67-3.55,8-4.76,12.99,.6,3.56,4.31,8.21,11.11,13.95,5.06,9.6,11.71,14.41,19.95,14.41,5.29,0,11.98-4.8,20.07-14.41h.91c1.44,0,2.64,1.63,3.63,4.88,.98,3.25,1.47,6.12,1.47,8.62,0,6.35-2.02,12.97-6.06,19.85-4.04,6.88-9.31,12.57-15.81,17.07-6.5,4.5-13.3,6.75-20.4,6.75-3.02,0-6.33-1.17-9.92-3.52-3.59-2.34-7.86-5.67-12.81-9.98-4.95-4.31-9.01-7.56-12.19-9.75-3.17-2.19-6.08-3.29-8.73-3.29-2.87,0-4.72,1.25-5.55,3.74-2.19,3.86-10.39,14.71-24.6,32.55-1.81,1.51-4.63,4.8-8.44,9.87-3.82,5.07-7.16,8.94-10.03,11.63-2.87,2.68-6.01,4.03-9.41,4.03Z"/><path class="cls-1" d="M227.08,312.26c-.68,.38-2.02,.72-4.03,1.02-2.01,.3-3.46,.57-4.37,.79-5.9-1.13-8.85-3.93-8.85-8.39,0-3.4,.74-7.99,2.21-13.77,1.47-5.78,3.7-13.34,6.69-22.67,2.99-9.33,5.12-16.24,6.41-20.74,1.29-4.49,1.93-8.33,1.93-11.5s-.3-4.65-.91-4.65c-3.03,0-6.39,1.65-10.1,4.94-3.71,3.29-8.15,8.06-13.33,14.31-5.18,6.25-9.36,10.98-12.53,14.19-3.18,3.22-6.05,5.09-8.62,5.62,0-5.14-.17-10.34-.51-15.6-.34-5.26-.51-9.02-.51-11.29,3.02-4.92,6.71-9.79,11.06-14.59,4.35-4.81,9.92-10.5,16.73-17.09,6.81-6.59,11.19-10.94,13.16-13.06,10.36-11.74,18.6-20.4,24.73-26.01s13.04-8.41,20.76-8.41c8.39,0,12.59,3.9,12.59,11.69,0,5.15-.42,9.92-1.25,14.31-.83,4.39-2.08,10.07-3.74,17.03-1.66,6.96-2.8,12.3-3.4,16.01,.45,.46,.85,.85,1.19,1.19,.34,.34,.58,.59,.74,.74,1.81,0,5.26-2.16,10.32-6.47,5.06-4.31,12.59-11.26,22.57-20.83,9.98-9.57,16.03-15.34,18.15-17.31,8.62-8.63,14.39-14.3,17.3-17.03,2.91-2.72,6.14-4.99,9.7-6.81,3.55-1.82,7.56-2.73,12.02-2.73,2.95,0,5.46,2.1,7.54,6.3,2.08,4.2,3.12,9.06,3.12,14.59,0,6.36-.81,13.49-2.44,21.41-1.63,7.91-3.25,15.86-4.88,23.85-1.63,7.99-2.44,15.08-2.44,21.29,1.97-.68,4.5-2.8,7.6-6.37,3.1-3.56,4.76-5.46,4.99-5.69,9.22-9.25,18.01-16.52,26.37-21.83,8.35-5.31,17.37-7.96,27.05-7.96,2.65,.53,6.16,3.54,10.55,9.04,4.38,5.49,7.22,11.16,8.51,16.99,.98,5.38,4.04,11.31,9.19,17.79,5.14,6.48,9.98,9.72,14.52,9.72,2.34,0,4.57-.72,6.69-2.16,2.12-1.44,4.63-3.62,7.54-6.53,2.91-2.92,5.03-4.92,6.35-6.02,1.32-1.1,2.66-1.65,4.03-1.65,0,5-.3,8.57-.91,10.69,1.21,9.98,1.81,16.03,1.81,18.15,0,4.92-2.14,8.94-6.41,12.08-4.27,3.14-10.36,6.11-18.26,8.9-7.9,2.8-12.08,4.31-12.53,4.54-3.1-.45-9.76-3.06-19.96-7.83-3.1-1.74-7.54-6.28-13.33-13.61-5.79-7.33-10.79-12.87-15.03-16.62-4.24-3.74-9.34-5.61-15.31-5.61-1.74,0-5.29,1.89-10.66,5.66-5.37,3.78-10.02,7.93-13.95,12.46-4.31,5.51-11.47,13.95-21.49,25.31-10.02,11.36-16.77,18.4-20.25,21.12-3.86,4.3-8.66,6.45-14.4,6.45-4.31,0-7.56-2.8-9.76-8.39,0-6.12,.74-12.22,2.21-18.31,1.47-6.08,3.86-14.21,7.14-24.37,3.29-10.17,5.71-18.38,7.26-24.66,1.55-6.27,2.33-12.77,2.33-19.5v-2.72h-3.63c-2.88,0-5.37,.78-7.49,2.33-2.12,1.55-4.65,4.02-7.6,7.39-2.95,3.37-5.54,5.93-7.77,7.68-2.23,1.74-4.71,2.61-7.43,2.61-2.57,4.23-9.81,12.63-21.72,25.2-11.91,12.57-19.68,21.35-23.31,26.34-12.1,12.08-18.75,18.43-19.96,19.03Z"/></svg>