<svg width="40" height="40" viewBox="0 0 40 40" fill="none" xmlns="http://www.w3.org/2000/svg">
<path d="M30.5469 25.9375C26.6635 25.9375 23.5156 29.0854 23.5156 32.9688C23.5156 36.8521 26.6635 40 30.5469 40C34.4302 40 37.5781 36.8521 37.5781 32.9688C37.5781 29.0854 34.4302 25.9375 30.5469 25.9375ZM29.375 36.9696L26.2027 33.7973L27.8598 32.1402L29.375 33.6554L33.2339 29.7964L34.8911 31.4536L29.375 36.9696Z" fill="#F000BB"/>
<path d="M20.13 15.1878C18.717 16.042 17.0804 16.5626 15.3125 16.5626C13.5315 16.5626 11.8823 16.0362 10.463 15.1704C5.7486 17.0872 2.42188 21.707 2.42188 27.1095V35.3126H21.5048C21.3089 34.5591 21.1719 33.7828 21.1719 32.9689C21.1719 28.7538 23.9868 25.2217 27.8214 24.0455C26.8332 19.9986 23.9252 16.7283 20.13 15.1878Z" fill="#F000BB"/>
<path d="M22.3438 7.1875C22.3438 3.30414 19.1959 0 15.3125 0C11.4291 0 8.28125 3.30414 8.28125 7.1875C8.28125 11.0709 11.4291 14.2188 15.3125 14.2188C19.1959 14.2188 22.3438 11.0709 22.3438 7.1875Z" fill="#F000BB"/>
</svg>
