<svg width="40" height="40" viewBox="0 0 40 40" fill="none" xmlns="http://www.w3.org/2000/svg">
<path d="M21.1719 24.6875H18.8281V29.375H21.1719V24.6875Z" fill="#F000BB"/>
<path d="M7.10938 8.28125V22.3438H7.22797C7.77242 19.6726 10.1394 17.6562 12.9688 17.6562C15.7981 17.6562 18.1651 19.6726 18.7095 22.3438H21.2905C21.8349 19.6726 24.2019 17.6562 27.0312 17.6562C29.8606 17.6562 32.2276 19.6726 32.772 22.3438H32.8906V8.28125H7.10938Z" fill="#F000BB"/>
<path d="M38.8281 1.25H1.17188C0.524141 1.25 0 1.77414 0 2.42188V28.2031C0 28.8509 0.524141 29.375 1.17188 29.375H7.10938V24.6875H5.9375C5.28977 24.6875 4.76562 24.1634 4.76562 23.5156V7.10938C4.76562 6.46164 5.28977 5.9375 5.9375 5.9375H34.0625C34.7102 5.9375 35.2344 6.46164 35.2344 7.10938V23.5156C35.2344 24.1634 34.7102 24.6875 34.0625 24.6875H32.8906V29.375H38.8281C39.4759 29.375 40 28.8509 40 28.2031V2.42188C40 1.77414 39.4759 1.25 38.8281 1.25Z" fill="#F000BB"/>
<path d="M27.0312 20C25.0927 20 23.5156 21.577 23.5156 23.5156V27.884C24.5642 27.2466 25.7628 26.8665 27.0312 26.8665C28.2997 26.8665 29.4983 27.2466 30.5469 27.884V23.5156C30.5469 21.577 28.9698 20 27.0312 20Z" fill="#F000BB"/>
<path d="M27.0312 29.2102C25.6172 29.2102 24.3639 29.8598 23.5156 30.967V35.2343C23.5156 37.1729 25.0927 38.75 27.0312 38.75C28.9698 38.75 30.5469 37.1729 30.5469 35.2343V30.967C29.6986 29.8597 28.4453 29.2102 27.0312 29.2102Z" fill="#F000BB"/>
<path d="M12.9688 20C11.0302 20 9.45312 21.577 9.45312 23.5156V27.884C10.5017 27.2466 11.7003 26.8665 12.9688 26.8665C14.2372 26.8665 15.4358 27.2466 16.4844 27.884V23.5156C16.4844 21.577 14.9073 20 12.9688 20Z" fill="#F000BB"/>
<path d="M12.9688 29.2102C11.5547 29.2102 10.3014 29.8598 9.45312 30.967V35.2343C9.45312 37.1729 11.0302 38.75 12.9688 38.75C14.9073 38.75 16.4844 37.1729 16.4844 35.2343V30.967C15.6361 29.8597 14.3828 29.2102 12.9688 29.2102Z" fill="#F000BB"/>
</svg>
