<svg width="40" height="40" viewBox="0 0 40 40" fill="none" xmlns="http://www.w3.org/2000/svg">
<g clip-path="url(#clip0_11_13)">
<path d="M10 33.0469C12.3695 33.0469 14.2969 31.1195 14.2969 28.75C14.2969 26.9836 11.6703 15.2102 11.143 12.868C11.0234 12.3328 10.5484 11.9531 10 11.9531C9.45156 11.9531 8.97656 12.3328 8.85703 12.868C8.32969 15.2102 5.70312 26.9836 5.70312 28.75C5.70312 31.1195 7.63047 33.0469 10 33.0469Z" fill="#F000BB"/>
<path d="M29.375 21.1719C31.7445 21.1719 33.6719 19.2445 33.6719 16.875C33.6719 15.1094 31.0453 3.27109 30.5188 0.916406C30.3992 0.380469 29.9234 0 29.375 0C28.8266 0 28.3508 0.380469 28.2312 0.916406C27.7047 3.27109 25.0781 15.1094 25.0781 16.875C25.0781 19.2445 27.0055 21.1719 29.375 21.1719Z" fill="#F000BB"/>
<path d="M29.375 33.2031C31.1411 33.2031 32.5781 31.7662 32.5781 30V25.625C32.5781 24.9837 32.7204 24.3752 32.9733 23.8281H25.7766C26.0296 24.3752 26.1718 24.9837 26.1718 25.625V30C26.1718 31.7662 27.6088 33.2031 29.375 33.2031Z" fill="#F000BB"/>
<path d="M38.8281 23.8281H36.1102C35.4125 24.1266 34.9219 24.8195 34.9219 25.625V28.8281H40V25C40 24.3531 39.475 23.8281 38.8281 23.8281Z" fill="#F000BB"/>
<path d="M16.6398 28.8281H23.8281V25.625C23.8281 24.8195 23.3375 24.1266 22.6398 23.8281H15.8789C16.0581 24.7533 16.668 27.8992 16.6398 28.8281Z" fill="#F000BB"/>
<path d="M4.12109 23.8281H1.17188C0.525 23.8281 0 24.3531 0 25V28.8281H3.36016C3.33195 27.8988 3.94023 24.7616 4.12109 23.8281Z" fill="#F000BB"/>
<path d="M29.375 35.5469C26.718 35.5469 24.4922 33.6695 23.9531 31.1719H16.1836C15.2141 33.6391 12.8078 35.3906 10 35.3906C7.19219 35.3906 4.78594 33.6391 3.81641 31.1719H0V38.8281C0 39.475 0.525 40 1.17188 40H38.8281C39.475 40 40 39.475 40 38.8281V31.1719H34.7969C34.2578 33.6695 32.032 35.5469 29.375 35.5469Z" fill="#F000BB"/>
<path d="M18.8282 15.936V18.125C18.8282 18.7722 19.3529 19.2969 20 19.2969C20.6472 19.2969 21.1719 18.7722 21.1719 18.125V15.936C21.6407 16.289 22.2925 16.2399 22.7036 15.8287C23.1613 15.371 23.1613 14.6291 22.7036 14.1714L20.8286 12.2964C20.3711 11.8388 19.629 11.8388 19.1714 12.2964L17.2964 14.1714C16.8387 14.6291 16.8387 15.371 17.2964 15.8287C17.7144 16.2467 18.3691 16.2817 18.8282 15.936Z" fill="#F000BB"/>
<path d="M35.7032 9.06096V11.25C35.7032 11.8972 36.2279 12.4219 36.875 12.4219C37.5222 12.4219 38.0469 11.8972 38.0469 11.25V9.06096C38.5157 9.41401 39.1675 9.36494 39.5786 8.95369C40.0363 8.49604 40.0363 7.75408 39.5786 7.29643L37.7036 5.42143C37.2461 4.96377 36.504 4.96377 36.0464 5.42143L34.1714 7.29643C33.7137 7.75408 33.7137 8.49604 34.1714 8.95369C34.5894 9.37174 35.2441 9.40666 35.7032 9.06096Z" fill="#F000BB"/>
</g>
<defs>
<clipPath id="clip0_11_13">
<rect width="40" height="40" fill="white"/>
</clipPath>
</defs>
</svg>
