<svg width="40" height="40" viewBox="0 0 40 40" fill="none" xmlns="http://www.w3.org/2000/svg">
<g clip-path="url(#clip0_11_115)">
<path d="M4.56136 23.8596H1.05258C0.665016 23.8596 0.35083 24.1738 0.35083 24.5614V39.2982C0.35083 39.6858 0.665016 40 1.05258 40H4.56136C4.94892 40 5.26311 39.6858 5.26311 39.2982V24.5614C5.26311 24.1738 4.94892 23.8596 4.56136 23.8596Z" fill="#F000BB"/>
<path d="M38.0391 28.4722L25.0525 32.8028C24.3276 33.0435 24.55 32.9824 17.7051 32.9824C16.3873 33.0007 15.1123 33.4525 14.077 34.268C13.8684 34.4072 13.6015 34.4245 13.3767 34.3134C13.1519 34.2023 13.0034 33.9797 12.9872 33.7295C12.971 33.4793 13.0895 33.2394 13.2981 33.1003L13.8125 32.7578C14.9641 31.9897 16.3173 31.5795 17.7016 31.5789H21.9647C23.0721 30.0933 21.4735 28.0701 19.5998 28.0701H15.9297C14.2851 28.0682 12.6918 27.498 11.4195 26.4561C10.4112 25.6615 9.15917 25.24 7.87563 25.2631H7.36826C6.98069 25.2631 6.6665 25.5773 6.6665 25.9649V38.5964C6.6665 38.984 6.98069 39.2982 7.36826 39.2982H23.7191C24.4917 39.2983 25.2494 39.0859 25.9093 38.6842L39.063 30.6771C39.3573 30.4982 39.5622 30.2033 39.6272 29.865C39.6922 29.5268 39.6111 29.1769 39.404 28.9017C39.0938 28.4729 38.539 28.2983 38.0391 28.4722Z" fill="#F000BB"/>
<path d="M25.614 25.2632C31.4245 25.2632 36.1403 20.8912 36.1403 15.5018C36.1403 10.1123 25.614 0 25.614 0C25.614 0 15.0876 10.1123 15.0876 15.5018C15.0876 20.8912 19.8034 25.2632 25.614 25.2632ZM19.9999 14.7368C19.9999 14.3493 20.3141 14.0351 20.7017 14.0351H23.5087C23.8963 14.0351 24.2105 13.7209 24.2105 13.3333V10.5263C24.2105 10.1387 24.5246 9.82456 24.9122 9.82456H26.3157C26.7033 9.82456 27.0175 10.1387 27.0175 10.5263V13.3333C27.0175 13.7209 27.3317 14.0351 27.7192 14.0351H30.5262C30.9138 14.0351 31.228 14.3493 31.228 14.7368V16.1404C31.228 16.5279 30.9138 16.8421 30.5262 16.8421H27.7192C27.3317 16.8421 27.0175 17.1563 27.0175 17.5439V20.3509C27.0175 20.7384 26.7033 21.0526 26.3157 21.0526H24.9122C24.5246 21.0526 24.2105 20.7384 24.2105 20.3509V17.5439C24.2105 17.1563 23.8963 16.8421 23.5087 16.8421H20.7017C20.3141 16.8421 19.9999 16.5279 19.9999 16.1404V14.7368Z" fill="#F000BB"/>
</g>
<defs>
<clipPath id="clip0_11_115">
<rect width="40" height="40" fill="white"/>
</clipPath>
</defs>
</svg>
