<svg width="40" height="40" viewBox="0 0 40 40" fill="none" xmlns="http://www.w3.org/2000/svg">
<path d="M15.2929 25.8691C15.0235 25.8691 14.7589 25.8493 14.499 25.814L15.3536 33.4887C15.5727 35.4574 16.9882 37.0229 18.828 37.4972V38.8281C18.828 39.4753 19.3527 40 19.9999 40C20.6471 40 21.1718 39.4753 21.1718 38.8281V37.4972C23.0115 37.0229 24.427 35.4574 24.6462 33.4887L25.5007 25.814C25.2409 25.8493 24.9763 25.8691 24.7069 25.8691H15.2929Z" fill="#F000BB"/>
<path d="M18.8184 15.293C18.8184 15.9445 19.3484 16.4746 20 16.4746C20.6516 16.4746 21.1816 15.9445 21.1816 15.293V11.7676H18.8184V15.293Z" fill="#F000BB"/>
<path d="M23.5254 11.8851V15.2929C23.5254 17.2369 21.9439 18.8183 20 18.8183C18.0561 18.8183 16.4746 17.2369 16.4746 15.2929V11.8851C13.7925 12.4298 11.7676 14.806 11.7676 17.6465V20C11.7676 21.9439 13.3491 23.5254 15.293 23.5254H24.707C26.6509 23.5254 28.2324 21.9439 28.2324 20V17.6465C28.2324 14.806 26.2075 12.4299 23.5254 11.8851Z" fill="#F000BB"/>
<path d="M23.668 9.5294C23.8296 9.60815 24.0052 9.6487 24.1812 9.6487C24.2046 9.6487 24.228 9.64675 24.2514 9.64534C24.5275 9.62886 24.7989 9.51636 25.0098 9.30542C25.4675 8.84784 25.4675 8.10589 25.0098 7.64815C23.6716 6.31003 21.8925 5.573 20 5.573C18.1075 5.573 16.3284 6.31003 14.9902 7.64815C14.5326 8.10581 14.5326 8.84776 14.9902 9.30542C15.2011 9.51636 15.4724 9.62886 15.7485 9.64534C15.9477 9.65722 16.1488 9.61862 16.3319 9.5294C16.4457 9.47394 16.5529 9.40003 16.6474 9.30542C17.5429 8.40987 18.7335 7.91675 19.9999 7.91675C21.2663 7.91675 22.457 8.40987 23.3524 9.30542C23.447 9.40003 23.5541 9.47394 23.668 9.5294Z" fill="#F000BB"/>
<path d="M29.0495 3.74844C26.6323 1.33125 23.4184 0 20 0C16.5815 0 13.3676 1.33125 10.9504 3.74844C10.4928 4.20602 10.4928 4.94805 10.9504 5.4057C11.408 5.86328 12.15 5.86328 12.6077 5.4057C14.5822 3.43117 17.2075 2.34375 20 2.34375C22.7924 2.34375 25.4177 3.43117 27.3922 5.4057C27.621 5.63461 27.9209 5.74898 28.2208 5.74898C28.5207 5.74898 28.8207 5.63453 29.0494 5.4057C29.5071 4.94812 29.5071 4.20609 29.0495 3.74844Z" fill="#F000BB"/>
</svg>
