<svg width="25" height="25" viewBox="0 0 25 25" fill="none" xmlns="http://www.w3.org/2000/svg">
<path d="M12.5 0C8.10718 0 4.44336 3.53857 4.44336 8.05664C4.44336 9.77549 4.95986 11.3082 5.95112 12.7444L11.8834 22.0013C12.1712 22.4513 12.8293 22.4504 13.1166 22.0013L19.0746 12.7129C20.0445 11.3418 20.5566 9.73179 20.5566 8.05664C20.5566 3.61421 16.9424 0 12.5 0ZM12.5 11.7188C10.4808 11.7188 8.83789 10.0758 8.83789 8.05664C8.83789 6.03745 10.4808 4.39453 12.5 4.39453C14.5192 4.39453 16.1621 6.03745 16.1621 8.05664C16.1621 10.0758 14.5192 11.7188 12.5 11.7188Z" fill="#F000BB"/>
<path d="M18.2258 16.8308L14.5377 22.5968C13.5831 24.0852 11.4116 24.0803 10.4615 22.5982L6.76748 16.8323C3.51729 17.5838 1.51367 18.9604 1.51367 20.6055C1.51367 23.4601 7.17422 25 12.5 25C17.8258 25 23.4863 23.4601 23.4863 20.6055C23.4863 18.9592 21.4799 17.5819 18.2258 16.8308Z" fill="#F000BB"/>
</svg>
