<svg width="40" height="40" viewBox="0 0 40 40" fill="none" xmlns="http://www.w3.org/2000/svg">
<g clip-path="url(#clip0_11_125)">
<path d="M3.51562 40H20C21.9386 40 23.5156 38.423 23.5156 36.4844V30.5469H15.3125C13.3739 30.5469 11.7969 28.9698 11.7969 27.0312V10.625C11.7969 8.68641 13.3739 7.10938 15.3125 7.10938H23.5156V3.51562C23.5156 1.57703 21.9386 0 20 0H3.51562C1.57703 0 0 1.57703 0 3.51562V36.4844C0 38.423 1.57703 40 3.51562 40ZM11.7969 3.51562C12.4441 3.51562 12.9688 4.11828 12.9688 4.76562C12.9688 5.41281 12.4441 5.9375 11.7969 5.9375C11.1497 5.9375 10.625 5.41281 10.625 4.76562C10.625 4.11828 11.1497 3.51562 11.7969 3.51562ZM10.625 32.8906H12.9688C13.6165 32.8906 14.1406 33.4148 14.1406 34.0625C14.1406 34.7102 13.6165 35.2344 12.9688 35.2344H10.625C9.97727 35.2344 9.45312 34.7102 9.45312 34.0625C9.45312 33.4148 9.97727 32.8906 10.625 32.8906Z" fill="#F000BB"/>
<path d="M38.8281 9.45312H15.3125C14.6648 9.45312 14.1406 9.97727 14.1406 10.625V14.1406H40V10.625C40 9.97727 39.4759 9.45312 38.8281 9.45312Z" fill="#F000BB"/>
<path d="M14.1406 27.0312C14.1406 27.679 14.6648 28.2031 15.3125 28.2031H38.8281C39.4759 28.2031 40 27.679 40 27.0312V16.4844H14.1406V27.0312ZM31.7188 18.8281H34.0625C34.7102 18.8281 35.2344 19.3523 35.2344 20C35.2344 20.6477 34.7102 21.1719 34.0625 21.1719H31.7188C31.071 21.1719 30.5469 20.6477 30.5469 20C30.5469 19.3523 31.071 18.8281 31.7188 18.8281Z" fill="#F000BB"/>
</g>
<defs>
<clipPath id="clip0_11_125">
<rect width="40" height="40" fill="white"/>
</clipPath>
</defs>
</svg>
