<svg width="40" height="40" viewBox="0 0 40 40" fill="none" xmlns="http://www.w3.org/2000/svg">
<path d="M20 0C8.97202 0 0 8.97202 0 20C0 31.028 8.97202 40 20 40C31.028 40 40 31.028 40 20C40 8.97202 31.028 0 20 0ZM20 38.4615C9.82029 38.4615 1.53846 30.1797 1.53846 20C1.53846 9.82029 9.82029 1.53846 20 1.53846C30.1797 1.53846 38.4615 9.82029 38.4615 20C38.4615 30.1797 30.1797 38.4615 20 38.4615Z" fill="#F000BB"/>
<path d="M19.9999 12.3077C18.4785 12.3077 16.9913 12.7588 15.7263 13.6041C14.4613 14.4493 13.4754 15.6507 12.8932 17.0563C12.311 18.4619 12.1586 20.0085 12.4554 21.5007C12.7522 22.9928 13.4849 24.3635 14.5606 25.4393C15.6364 26.5151 17.0071 27.2477 18.4992 27.5445C19.9914 27.8413 21.5381 27.689 22.9436 27.1068C24.3492 26.5245 25.5506 25.5386 26.3959 24.2736C27.2411 23.0086 27.6922 21.5214 27.6922 20C27.6899 17.9606 26.8787 16.0053 25.4367 14.5633C23.9946 13.1212 22.0393 12.31 19.9999 12.3077ZM16.923 17.6923C17.0751 17.6923 17.2239 17.7374 17.3504 17.8219C17.4769 17.9065 17.5755 18.0266 17.6337 18.1672C17.6919 18.3077 17.7071 18.4624 17.6775 18.6116C17.6478 18.7608 17.5745 18.8979 17.4669 19.0055C17.3594 19.113 17.2223 19.1863 17.0731 19.216C16.9239 19.2457 16.7692 19.2304 16.6286 19.1722C16.4881 19.114 16.3679 19.0154 16.2834 18.8889C16.1989 18.7624 16.1538 18.6137 16.1538 18.4615C16.1538 18.2575 16.2348 18.0619 16.3791 17.9176C16.5233 17.7733 16.719 17.6923 16.923 17.6923ZM23.8067 21.7817C23.7682 21.8971 22.8295 24.6154 19.9999 24.6154C17.1703 24.6154 16.2319 21.8974 16.1933 21.7817C16.13 21.5888 16.1456 21.3786 16.2367 21.1971C16.3277 21.0156 16.4868 20.8775 16.6793 20.8129C16.8718 20.7482 17.0821 20.7623 17.2642 20.852C17.4464 20.9418 17.5856 21.0999 17.6517 21.2919C17.6805 21.3758 18.2953 23.0769 19.9999 23.0769C21.7103 23.0769 22.3232 21.364 22.3485 21.2911C22.4146 21.0991 22.5539 20.941 22.7361 20.8513C22.9183 20.7617 23.1286 20.7476 23.321 20.8124C23.5135 20.8771 23.6726 21.0153 23.7636 21.1969C23.8545 21.3784 23.87 21.5886 23.8067 21.7815V21.7817ZM23.0769 19.2308C22.9247 19.2308 22.776 19.1856 22.6495 19.1011C22.523 19.0166 22.4244 18.8965 22.3662 18.7559C22.308 18.6153 22.2927 18.4607 22.3224 18.3115C22.3521 18.1622 22.4253 18.0252 22.5329 17.9176C22.6405 17.81 22.7776 17.7368 22.9268 17.7071C23.076 17.6774 23.2307 17.6926 23.3712 17.7508C23.5118 17.8091 23.6319 17.9077 23.7164 18.0342C23.801 18.1607 23.8461 18.3094 23.8461 18.4615C23.8461 18.6655 23.765 18.8612 23.6208 19.0055C23.4765 19.1497 23.2809 19.2308 23.0769 19.2308Z" fill="#F000BB"/>
<path d="M35.3846 20C35.3846 19.7959 35.4657 19.6003 35.6099 19.456C35.7542 19.3118 35.9499 19.2307 36.1539 19.2307H36.9048C36.7276 15.2779 35.1656 11.5133 32.4922 8.59611L31.9665 9.12188C31.895 9.19332 31.8102 9.24998 31.7169 9.28864C31.6236 9.3273 31.5235 9.34719 31.4225 9.34719C31.3215 9.34719 31.2215 9.3273 31.1281 9.28864C31.0348 9.24998 30.95 9.19332 30.8786 9.12188C30.8071 9.05045 30.7505 8.96565 30.7118 8.87232C30.6732 8.77899 30.6533 8.67896 30.6533 8.57794C30.6533 8.47692 30.6732 8.37689 30.7118 8.28356C30.7505 8.19023 30.8071 8.10543 30.8786 8.034L31.4044 7.50823C28.4871 4.83463 24.7224 3.27242 20.7693 3.09515V3.84612C20.7693 4.05013 20.6882 4.24578 20.544 4.39004C20.3997 4.5343 20.204 4.61535 20 4.61535C19.796 4.61535 19.6004 4.5343 19.4561 4.39004C19.3118 4.24578 19.2308 4.05013 19.2308 3.84612V3.09515C15.2779 3.2724 11.5134 4.83443 8.59618 7.50775L9.12194 8.03352C9.19338 8.10495 9.25004 8.18975 9.2887 8.28308C9.32736 8.37641 9.34725 8.47644 9.34725 8.57746C9.34725 8.67848 9.32736 8.77851 9.2887 8.87184C9.25004 8.96517 9.19338 9.04997 9.12194 9.1214C9.05051 9.19284 8.96571 9.2495 8.87238 9.28816C8.77905 9.32682 8.67902 9.34671 8.578 9.34671C8.47698 9.34671 8.37695 9.32682 8.28362 9.28816C8.19029 9.2495 8.10549 9.19284 8.03406 9.1214L7.50829 8.59563C4.83469 11.5129 3.27249 15.2776 3.09521 19.2307H3.84618C4.05019 19.2307 4.24585 19.3118 4.3901 19.456C4.53436 19.6003 4.61541 19.7959 4.61541 20C4.61541 20.204 4.53436 20.3996 4.3901 20.5439C4.24585 20.6881 4.05019 20.7692 3.84618 20.7692H3.09521C3.27235 24.7222 4.83438 28.487 7.50781 31.4043L8.03358 30.8785C8.10501 30.8071 8.18981 30.7504 8.28314 30.7118C8.37647 30.6731 8.4765 30.6532 8.57752 30.6532C8.67854 30.6532 8.77857 30.6731 8.8719 30.7118C8.96523 30.7504 9.05003 30.8071 9.12147 30.8785C9.1929 30.95 9.24956 31.0348 9.28822 31.1281C9.32688 31.2214 9.34677 31.3214 9.34677 31.4225C9.34677 31.5235 9.32688 31.6235 9.28822 31.7168C9.24956 31.8102 9.1929 31.895 9.12147 31.9664L8.5957 32.4922C11.513 35.1656 15.2778 36.7276 19.2308 36.9048V36.1538C19.2308 35.9498 19.3118 35.7541 19.4561 35.6099C19.6004 35.4656 19.796 35.3846 20 35.3846C20.204 35.3846 20.3997 35.4656 20.544 35.6099C20.6882 35.7541 20.7693 35.9498 20.7693 36.1538V36.9048C24.7223 36.7276 28.487 35.1656 31.4044 32.4922L30.8786 31.9664C30.8071 31.895 30.7505 31.8102 30.7118 31.7168C30.6732 31.6235 30.6533 31.5235 30.6533 31.4225C30.6533 31.3214 30.6732 31.2214 30.7118 31.1281C30.7505 31.0348 30.8071 30.95 30.8786 30.8785C30.95 30.8071 31.0348 30.7504 31.1281 30.7118C31.2215 30.6731 31.3215 30.6532 31.4225 30.6532C31.5235 30.6532 31.6236 30.6731 31.7169 30.7118C31.8102 30.7504 31.895 30.8071 31.9665 30.8785L32.4922 31.4043C35.1657 28.487 36.7277 24.7222 36.9048 20.7692H36.1539C35.9499 20.7692 35.7542 20.6881 35.6099 20.5439C35.4657 20.3996 35.3846 20.204 35.3846 20ZM20 29.2307C17.8178 29.2326 15.706 28.4578 14.0428 27.0451L11.3132 29.7747C11.1689 29.9189 10.9733 30 10.7693 30C10.5652 30 10.3696 29.9189 10.2253 29.7747C10.081 29.6304 10 29.4347 10 29.2307C10 29.0267 10.081 28.831 10.2253 28.6868L12.9549 25.9572C11.8596 24.664 11.1417 23.0941 10.8799 21.4197C10.6181 19.7454 10.8227 18.0312 11.4711 16.4655C12.1194 14.8997 13.1866 13.5428 14.5554 12.5437C15.9243 11.5445 17.5419 10.9417 19.2308 10.8015V7.69227C19.2308 7.48826 19.3118 7.2926 19.4561 7.14834C19.6004 7.00408 19.796 6.92304 20 6.92304C20.204 6.92304 20.3997 7.00408 20.544 7.14834C20.6882 7.2926 20.7693 7.48826 20.7693 7.69227V10.8015C23.142 11.0005 25.3461 12.1088 26.9209 13.8947C28.4958 15.6805 29.3197 18.0059 29.2204 20.3849C29.1211 22.7639 28.1063 25.0126 26.3881 26.661C24.6699 28.3094 22.3811 29.2301 20 29.2307Z" fill="#F000BB"/>
</svg>
